<svg width="17" height="16" viewBox="0 0 17 16" fill="none" xmlns="http://www.w3.org/2000/svg">
<path d="M13.2876 15.7505C13.1692 15.751 13.0537 15.7141 12.9575 15.6451L8.43602 12.3671L3.91458 15.6451C3.81798 15.7151 3.7016 15.7527 3.58227 15.7522C3.46294 15.7518 3.34684 15.7134 3.25076 15.6427C3.15467 15.5719 3.08358 15.4724 3.04776 15.3586C3.01194 15.2447 3.01324 15.1225 3.05149 15.0094L4.81493 9.78628L0.244616 6.6521C0.14562 6.58429 0.0709031 6.48659 0.0313829 6.37329C-0.00813729 6.25999 -0.01039 6.13702 0.024954 6.02235C0.060298 5.90768 0.131386 5.80732 0.227832 5.73592C0.324278 5.66453 0.441028 5.62585 0.561022 5.62554H6.19938L7.90094 0.389013C7.9376 0.275959 8.00912 0.177419 8.10525 0.107532C8.20138 0.0376441 8.31717 0 8.43602 0C8.55487 0 8.67067 0.0376441 8.7668 0.107532C8.86292 0.177419 8.93445 0.275959 8.9711 0.389013L10.6727 5.6273H16.311C16.4312 5.62724 16.5482 5.66565 16.6449 5.7369C16.7416 5.80816 16.813 5.90851 16.8486 6.02327C16.8842 6.13803 16.882 6.26116 16.8426 6.37464C16.8031 6.48811 16.7283 6.58596 16.6292 6.65386L12.0571 9.78628L13.8195 15.008C13.8481 15.0926 13.8561 15.1827 13.8429 15.271C13.8298 15.3592 13.7958 15.4431 13.7438 15.5156C13.6919 15.5882 13.6234 15.6473 13.5441 15.6881C13.4647 15.729 13.3768 15.7504 13.2876 15.7505Z" fill="url(#paint0_linear_148_6990)"/>
<defs>
<linearGradient id="paint0_linear_148_6990" x1="2.06104" y1="1.12555" x2="13.311" y2="16.1255" gradientUnits="userSpaceOnUse">
<stop stop-color="#F84119"/>
<stop offset="1" stop-color="#F89F19" stop-opacity="0.68"/>
</linearGradient>
</defs>
</svg>
